<svg xmlns="http://www.w3.org/2000/svg" viewBox="0 0 452.15 485.18"><g id="Calque_2" data-name="Calque 2"><g id="Calque_1-2" data-name="Calque 1"><path d="M266.5,485.18c-5.43-.53-10.6-3.5-16.36-1.46-1.14.4-3-.76-4.34-1.53-5.62-3.25-11.11-6.69-16.73-9.93-11.09-6.4-22.69-7.19-34.45-2.26-9.24,3.88-18.56,5.42-27.72.84-4.88-2.44-9.1-6.27-13.4-9.75-4-3.23-7.44-7.19-11.59-10.19C134.56,445.6,126,444,117,443.65c-5-.19-9.9-.37-14.17-4.1-3.79-3.3-5.09-7.28-5.54-11.85-.21-2.11.31-4.36-.22-6.35-.4-1.46-1.73-3.32-3.06-3.77-6.74-2.29-11.22-7.64-11.06-14.79.11-4.74,1.13-9.45,1.52-14.19a5.09,5.09,0,0,0-1-3.63c-10.63-10.69-22-20.73-31.9-32-7.91-9-14.19-19.47-21.11-29.34-9.61-13.7-16.16-29-21.24-44.74C4.67,264.78.61,250.39.67,235.29A14,14,0,0,0,0,232.21V214.65c.62-5.92.59-12,2-17.74C5.36,183,8.5,169,13.45,155.63c3.47-9.35,2.45-17.15-1.86-25.39a18.13,18.13,0,0,1,11-25.94c4.47-1.27,8.74-1,12.33,2.29,1.66,1.54,2.7,1.5,4.13-.38C45.41,97.76,51.5,89,58.57,81.14A244.58,244.58,0,0,1,93.48,49.32,252.23,252.23,0,0,1,139.69,22,242.65,242.65,0,0,1,189.2,5.79,254.09,254.09,0,0,1,249.36.05C279.48.64,309.27,4,338.14,13.13c20.12,6.38,39.13,15.21,56.45,27.34C408.76,50.4,421.65,61.85,432,75.85c6.37,8.63,12.41,17.5,18.43,26.38,2.79,4.12,2.36,5-2.28,6.89-8.1,3.24-6.11,3.23-10.68-3.75-6.73-10.28-14.23-20.07-21.74-29.82-3.29-4.28-7.47-7.86-11.12-11.87-4-4.38-6.23-4.65-10.64-.83-2.61,2.25-5.17,4.57-7.69,6.93-1.77,1.66-3.34,1.82-5.11-.07s-3.79-3.66-6.15-5.9c3.53-3.18,6.88-6.32,10.36-9.29s3.31-3.81-.23-6.15C353.22,27.23,317.71,17,280,13.54c-8.32-.75-16.69-1-25-1.58-3.3-.23-4.55,1.21-4.42,4.45.15,3.85,0,7.71,0,11.57,0,2.63-1.21,3.75-3.86,3.94-9.36.67-9.69.43-9.69-8.9,0-.54,0-1.07,0-1.6-.17-10.18,1.7-10.12-10.14-9.24-28.85,2.15-56.57,8.85-83,21.08A229.19,229.19,0,0,0,92.39,65.52c-14,11.79-27.1,24.64-37.61,39.83-3.55,5.12-7.09,10.25-10.87,15.2-2.12,2.79-.89,5.3,0,7.89,1,3,2.37,5.89,3.36,8.9,4.16,12.61,8.17,25.27,12.37,37.86,1.16,3.49,2.77,6.82,4.5,11L70.76,180l1,.84A40.91,40.91,0,0,1,67.38,186a5.56,5.56,0,0,0-2.19,5.83c1.34,8.43-2.56,15.17-10.35,18.62a12.44,12.44,0,0,1-17.1-7.5c-4.29-12.27-8.74-24.49-13.13-36.73-.17-.47-.48-.88-1.82-1.48-2.23,8.64-5,17.18-6.57,25.94C11.84,215.11,12,239.69,18,263.84c2.71,11,7.25,21.59,11.75,32a159.88,159.88,0,0,0,12.66,23.88c5.76,8.86,12.48,17.11,19,25.49,2.92,3.76,6.2,7.26,9.45,10.75,16.41,17.61,34.85,32.44,56.52,43.36,28.56,14.4,58.49,24.28,90.29,27.22,37.73,3.49,75.17,1.19,111.62-10.23a191.28,191.28,0,0,0,57.69-29.16,170.41,170.41,0,0,0,34.48-33.95c1.94-2.57,4-2.93,6.47-1.28,2.19,1.44,4.23,3.11,6.85,5.07-7.1,5-8,13-10.5,20.11-3.07,8.71-9.1,14.15-17.06,18.46a104.52,104.52,0,0,1-24.77,9.51c-7.78,2-11.54,8.35-12.83,16.18a119,119,0,0,1-2.64,12.41c-2.31,8.34-10.47,13.72-21,14-5.05.13-10.12.28-15.15-.05-8.67-.58-19.41,6.17-21.82,15.83-2.94,11.72-11.43,17.71-22.68,20.43-1.54.37-3.06.85-4.58,1.28Zm-90.8-54c.79.66,1.53,1.38,2.37,2q17.33,12,34.66,24c11,7.61,22,15.29,33.15,22.71,1.41.94,4.33,1.33,5.57.5,4.94-3.28,9.57-7.06,14.18-10.82,9.87-8,19.66-16.16,29.47-24.27,4.33-3.58,8.62-7.22,12.93-10.83C263.54,441.62,219.62,442.39,175.7,431.18ZM15.17,133.38c1.53,4.71,2.78,8.89,4.24,13C26,165,32.78,183.53,39.35,202.14c1.77,5,5.55,7.9,10.8,7.56,7.22-.48,13.51-6.57,13.48-13.77a34.49,34.49,0,0,0-2.09-10.46c-3.46-10.42-7.29-20.73-10.81-31.14-3.61-10.62-7-21.3-10.62-32.26C31.21,135,27.6,136.63,15.17,133.38ZM195,448.46l.53-1.13c-.61-.45-1.21-.92-1.84-1.35-6.45-4.43-12.7-9.18-19.41-13.17a104.79,104.79,0,0,0-17.11-8.15c-18.85-7-37.13-15.08-54.11-25.92-4.49-2.87-9-5.77-14.32-9.21-.36,4.64-.86,8.3-.9,12-.09,8.45,2.51,11.37,10.9,12.72,8.56,1.37,17.34,2.69,24.19,8.36a106.86,106.86,0,0,1,15.44,15.81c7.41,9.3,16.42,14.59,28.32,12.2C176.07,448.69,185.27,446.31,195,448.46Zm122.91-2.52a12.53,12.53,0,0,0-2-.55c-1.73-.06-3.46-.05-5.18-.11-10.51-.37-18,3.76-22.38,13.74-4.76,10.78-13.68,16.14-25.23,17.5a34.08,34.08,0,0,0-5.3,1.49l.22,1.24a57.74,57.74,0,0,0,21.88,1.69c10.26-1.28,19.48-4.62,23.51-15.57a33.48,33.48,0,0,1,2.74-6.17,75.25,75.25,0,0,1,6.16-8.57C313.74,449,315.7,447.76,317.89,445.94Zm-163.52,8.25-.7,1.29c2.65,2.46,5.23,5,8,7.36,5.91,5.11,13,7.87,20.56,6.37,9.86-1.94,19.49-5.1,28.91-7.65-5.51-6.64-18.91-11.43-28.49-10.32C173.21,452.33,164.24,457,154.37,454.19ZM38.22,117.83c.08-8.59-7.58-14.18-15.75-11.6-5.48,1.74-8.09,5.88-10,10.92-3.21,8.22,2.82,16.74,11.56,16C30.93,132.58,38.16,124.79,38.22,117.83ZM348.66,422c-.9.21-1.77.36-2.61.62-7.7,2.46-15.25,5.68-23.13,7.21-8.26,1.59-14.33,6.05-20.1,11.47,3.67,0,7.36-.19,11,.05,5.42.36,10.8,1.4,16.21,1.48C341.8,443,349.48,434.29,348.66,422ZM137,443.16c-6.79-10.52-14.59-18.65-26.14-22.39-8.66-2.8-9-2.53-8.67,6.43.28,7.43,3.51,11.15,10.93,12.13,4.59.61,9.25.64,13.82,1.3C130.11,441.09,133.21,442.19,137,443.16ZM366.1,413.64c-1.93,1-3.35,2.1-5,2.51-5.12,1.32-6.72,5-8,9.71-1.72,6.41-3.69,13-9.6,17.47,10.37,1,18.42-4.11,20-12.63C364.57,425.27,365.2,419.76,366.1,413.64Zm26.4-15.39c11.95-4.34,19.86-11.93,25.46-22.16C409.7,383.29,401.43,390.48,392.5,398.25ZM283.88,456.59l-16.71,13.86,1,1.12C275.73,469.35,281.48,465,283.88,456.59Z" transform="translate(0)"/><path d="M189.92,225.66l4.31-6.79.85.81c-.56,3.24-2.71,5.27-5.5,6.95a9.88,9.88,0,0,0-3.45,3c-2.42,4.1-4.42,8.45-6.82,12.56-7.1,12.13-16.93,21.72-28.64,29.29-13.45,8.71-28.15,14.48-44.14,16.13-8,.83-16.13.49-24.2.59-2.67,0-4.18-1-3.77-4.17.13-1-1.24-2.93-2.31-3.29a22.86,22.86,0,0,0-7.75-1.31c-3.81.1-5.6,2.67-5.15,6.48.65,5.41-.75,6.94-6.8,6.58,1.05-.55,2.35-.87,3.09-1.69.94-1,2.06-2.51,2-3.75-.28-6.73,3.16-10.14,9.79-9.41,2.51.28,6,1.41,7.31.22,1.55-1.43,1.31-4.89,1.65-7.5,1.4-10.53,2.64-21.09,4.1-31.61q3.91-28.17,8-56.32c1.61-11,3.41-22,5.09-33,.23-1.52.23-3.07.3-4L86.29,144c-5-.65-8.18,2.47-7.52,7.42.62,4.61-1.09,6.26-7.45,6.65.86-.74,1.29-1.36,1.86-1.55,3.31-1.11,4.83-2.62,3.14-6.5-1.52-3.48,5-8.45,9.82-7.7,1.31.2,2.56.73,3.86,1,5.25,1.1,8.21-.76,9.11-6.08q2.08-12.33,3.77-24.72c.45-3.26,2-4.44,5.12-3.72,5.57,1.27,11.11,2.63,16.72,3.69a14.33,14.33,0,0,0,6.55-.06c1.07-.32,2.42-2.63,2.22-3.78-1-5.55,2.57-9.89,8.46-9.65a16.18,16.18,0,0,1,4.3.81c4.21,1.39,7.23.1,9.36-3.73a8.61,8.61,0,0,1,2.45-2.59c-.8,6.08-5.91,9.54-11.43,8.22a23.59,23.59,0,0,0-5.45-1c-4.14,0-6,2.67-5.89,6.76.06,2.45-.9,4.93-1.51,7.91,5.2,2.89,11.48,6.24,17.6,9.86,2.31,1.37,4.19,3.64,6.25,1.93,1.24,2,2,4.12,3.46,5.4,8.64,7.46,15.46,16.37,21.31,26.07a25.43,25.43,0,0,1,2.36,5c2.65,7.9,5.19,15.82,7.81,23.85l2.19-1.77c.21.47.46.82.38.93-3.85,5.59-2.19,12-3,18.11-.83,6.5-2.42,12.9-3.68,19.34ZM126.06,114.91c1.49,2.56,7.15,5,11,4l-10.94-4.06-18-4.73-.45,1.7c1,.3,2.06.66,3.11.89,2.81.6,6.18-.34,8,2.9l-13.48-3c-2.56,6.71-1.91,8.12,4.4,9.25A84.72,84.72,0,0,1,141.07,134c13.64,8.79,24.06,20.08,30.88,35a67.71,67.71,0,0,1,5.53,37.68c-2.22,17.19-10.11,31.58-22.62,43.59a85,85,0,0,1-48.22,23.46c-7,1-14.25.81-21.38.82-3.37,0-3.89,1.94-4.36,4.45s.12,4.11,2.92,4.56c3.13.5,6.24,1.77,9.34,1.69a104.17,104.17,0,0,0,16.72-1.72,85.81,85.81,0,0,0,16-4.5c6.17-2.48,12-5.76,18-8.81,1.92-1,3.53-2.6,5.48-3.48,7.64-3.44,13-9.7,18.44-15.6,4.4-4.81,7.42-10.94,10.75-16.66a60.91,60.91,0,0,0,5.64-11.74c1.58-4.89,2.28-10.08,3.36-15.14-.48,4.78-1,9.55-1.48,14.82,5.57-13.23,6.12-32.33,2-40.84-.18,7.81-.38,16.86-.59,25.91-.29-4.83-.5-9.67-.9-14.49-.47-5.54-.69-11.16-1.81-16.58-.71-3.43-3.21-6.45-4.3-9.85-3.28-10.2-9.87-18.07-17.18-25.52-2.4-2.45-4.59-5.12-6.87-7.69l3.57,1.9.46-.74-7-5.57-.84.94,3.71,3.37c-1.31-.47-3.24-.55-3.82-1.48-2.68-4.34-7.65-4.89-11.38-7.42-2.79-1.89-5.86-2.75-9-3.82-3.86-1.31-7.09-4.42-11.68-3.63-.42.07-1-.74-1.5-1.14Zm-26.6,79.26-.6,1.14c3,1.94,6,4.2,9.19,5.76A410.68,410.68,0,0,1,162.2,232.8c2.58,1.77,4.06,1.19,5.33-1.38,6.8-13.85,10.71-28.23,8.12-43.83-.81-4.9-.93-4.81-5.85-3.83-12.48,2.49-25,5.08-37.56,7C121.39,192.35,110.39,193.06,99.46,194.17ZM174,181c-4.36-17.15-13.17-30.32-27.14-40.44L98.21,190.77l.68,1.13A340.86,340.86,0,0,0,174,181ZM99,204.75a24.63,24.63,0,0,0,1.39,4.39c3.59,7.22,7,14.55,11.06,21.51,6.06,10.39,12.63,20.48,18.93,30.73,1.2,1.94,2.64,2.52,4.63,1.37,10.56-6.07,19.86-13.61,27.27-23.39,1.86-2.46,1.24-3.89-1.16-5.38-5.07-3.14-9.89-6.69-15.06-9.64-14-8-28.17-15.81-42.33-23.57C100.54,199,99,200.2,99,204.75Zm31.9,60.12c-2.78-3.81-5.23-6.91-7.41-10.2a326.3,326.3,0,0,1-25.15-45.56c-.72-1.6-2.94-2.52-4.46-3.76-1,1.46-2.74,2.83-3,4.42-1.67,11-2.94,22.11-4.51,33.15-1.18,8.26-2.68,16.47-3.94,24.71-.65,4.29.08,5.17,4.11,5.23,4.78.07,9.58.22,14.35-.07C111.06,272.17,120.64,269.2,130.89,264.87ZM146.1,138.52c-7.17-3.69-13.53-7.54-20.33-10.31-5.73-2.33-12-3.47-18-5-2.62-.68-4.29.23-4.74,3.21-.66,4.43-1.77,8.8-2.36,13.24q-3,22.48-5.71,45c-.14,1.14.45,2.38.71,3.57,1.15-.44,2.57-.57,3.39-1.35,4.05-3.81,8-7.75,11.87-11.7,7.7-7.81,15.41-15.62,23-23.51C137.82,147.68,141.49,143.53,146.1,138.52Zm-51,52.38L94,190.43c-.61,2.82-1.41,5.62-1.74,8.47-.15,1.35.61,2.81,1,4.21,1.29-.33,3.37-.31,3.69-1.06.7-1.64,3.28-3,1.14-5.54C96.68,194.94,96,192.79,95.06,190.9Zm-14,93.94,0,1.64,9.48.64v-1.25Z" transform="translate(0)"/><path d="M243.45,412.84a42.1,42.1,0,0,1-5.91-1.74,3.38,3.38,0,0,1-1.78-2.65c.18-1.06,1.35-2.64,2.25-2.76a47.8,47.8,0,0,1,10.48-.42c1.23.11,2.29,2.08,3.43,3.2-1.2,1.21-2.24,2.71-3.66,3.53C247.09,412.67,245.46,412.53,243.45,412.84Zm4.38-3.55v-1.42h-7.45v1.42Z" transform="translate(0)"/><path d="M338.9,341.41c-2.47-1.6-6.83-3-7-4.82-.4-4.18,4.15-3.85,7.07-4.24a13.37,13.37,0,0,1,6.16.91c1.1.41,2.58,2.05,2.47,3a5.09,5.09,0,0,1-2.67,3.28c-1.61.75-3.58.72-5.4,1Zm-3.35-5.64-.15,1.16H344l0-1.16Z" transform="translate(0)"/><path d="M210.5,349a35.15,35.15,0,0,1-6-1.51,4.08,4.08,0,0,1-2.28-2.76c0-1,1.22-2.87,2-2.93,4-.31,8.1-.72,11.95.05,2.84.57,2.86,3.88.15,5.32C214.53,348.09,212.37,348.4,210.5,349Zm3.7-3.91.12-1.14h-8.73v1.14Z" transform="translate(0)"/><path d="M276.79,383.74h.4c4.75,0,7.66,1.66,7.48,4.16-.16,2.2-3.94,4.11-7.95,3.82a16.37,16.37,0,0,1-5.41-1.12c-1.14-.52-2.54-2-2.53-3s1.43-2.48,2.57-3c1.64-.72,3.59-.75,5.4-1.07Zm4.44,4.38V387H273.3v1.17Z" transform="translate(0)"/><path d="M114.6,382.53a41.21,41.21,0,0,1-6-1.45,3.7,3.7,0,0,1-2.06-2.56,3.54,3.54,0,0,1,1.69-2.76c3.85-1.9,7.94-2.34,11.89-.43,1.11.54,2.45,2.1,2.39,3.12s-1.5,2.42-2.66,3C118.3,382.13,116.48,382.16,114.6,382.53Zm-3.49-5,0,1.32a7.62,7.62,0,0,0,7.56-.11l0-1.21Z" transform="translate(0)"/><path d="M365.41,363.26a16.22,16.22,0,0,1-4.46-.84c-1.26-.58-2.74-1.89-3-3.09-.16-.84,1.48-2.79,2.53-3a33.51,33.51,0,0,1,9.68-.41c1.36.18,2.47,2.31,3.7,3.56a31.38,31.38,0,0,1-4.38,3.4C368.57,363.42,367.19,363.14,365.41,363.26ZM370,360l-.1-1.09h-7.47l0,1.09Z" transform="translate(0)"/><path d="M297,345.6c-.54,0-1.07,0-1.6,0-2.67-.24-6.09-.41-5.88-3.73.09-1.49,3.37-3.64,5.43-3.94,2.72-.4,5.78.37,8.46,1.3s2.82,3.54.07,4.9c-2,1-4.24,1.29-6.37,1.9Zm4.21-3.19v-1h-7.85v1Z" transform="translate(0)"/><path d="M296.85,314.48h-.8c-2.79-.17-5.89-.06-6.78-3.52-.56-2.2,2.9-4.52,6.94-4.43a23.81,23.81,0,0,1,6.93,1.45,3.5,3.5,0,0,1,2.1,2.43,3.55,3.55,0,0,1-1.9,2.62,48.71,48.71,0,0,1-6.38,1.85Zm4.26-3.25v-1.14h-8v1.14Z" transform="translate(0)"/><path d="M210.19,274c2.19.48,4.24.6,6,1.38,2.79,1.27,2.92,4.09.21,5.44a13.51,13.51,0,0,1-12.59.05c-2.45-1.24-2.44-4,.13-5.24C205.85,274.71,208.16,274.54,210.19,274Zm3.89,4.71-.06-1.06h-8.47v1.06Z" transform="translate(0)"/><path d="M313.33,369c-4.73-.29-8.07-2-7.45-4.4,1-3.91,4.59-4,7.73-3.87a19.88,19.88,0,0,1,6.47,1.59,3.43,3.43,0,0,1,1.79,2.67,3.56,3.56,0,0,1-2,2.52A50.41,50.41,0,0,1,313.33,369Zm-4-5-.06,1.39h8.1c0-.46,0-.93,0-1.39Z" transform="translate(0)"/><path d="M244.67,298.43c-2.72-1.34-7.5-.07-7.41-4.5.09-4,4.48-3.47,7.28-3.92a11.44,11.44,0,0,1,5.8,1c1.14.47,2.55,1.95,2.58,3s-1.34,2.56-2.46,3.08C248.69,297.88,246.63,298,244.67,298.43Zm-3.42-4.93v1h8.12v-1Z" transform="translate(0)"/><path d="M151.19,332a17.4,17.4,0,0,1,2.72.5c2.36.82,6.25.54,5.77,4-.21,1.51-3.91,2.65-6.15,3.7a6.07,6.07,0,0,1-3.12.06c-2.72-.35-6.64-.42-6.17-3.88.28-2,4-3.49,6.2-5.21Zm4,4.88,0-1.17h-7.93v1.17Z" transform="translate(0)"/><path d="M332.93,383.54a34.54,34.54,0,0,1,5.58,1.3,3.5,3.5,0,0,1,2,2.59,4.29,4.29,0,0,1-2.07,3,12.61,12.61,0,0,1-11.14.11c-1.13-.51-2.66-2.17-2.5-3a5.47,5.47,0,0,1,2.89-3.2C329,383.64,330.75,383.81,332.93,383.54Zm-4.38,3.38v1.13h8.55v-1.13Z" transform="translate(0)"/><path d="M259.54,334.78c1.73.48,4,.7,5.92,1.73,2.43,1.33,2.33,4.63-.21,5.21a39.87,39.87,0,0,1-11.19.58c-1.08-.06-2.82-2-2.84-3.13s1.56-2.6,2.8-3.23C255.48,335.2,257.31,335.21,259.54,334.78Zm-4.69,3.51,0,1.45h8.79c0-.48,0-1,0-1.45Z" transform="translate(0)"/><path d="M180.53,309.12c1.94.58,4.28.81,6.08,1.92,2.28,1.41,2.25,3.61-.21,5-4.15,2.35-8.45,1.87-12.51-.23-2.5-1.29-2.39-4,.19-5.16C176,309.85,178.13,309.67,180.53,309.12Zm-3.78,3.61v1.17h7.94v-1.17Z" transform="translate(0)"/><path d="M398.31,347h1.06c3,.19,7.07-.11,7,3.86-.05,3.76-4.21,3.68-7.15,4.08a5.76,5.76,0,0,1-3.47-.51,54.4,54.4,0,0,1-5.23-3.92c1.89-1.14,3.74-2.39,5.71-3.37A4.36,4.36,0,0,1,398.31,347Zm4.83,4.28v-1.17h-7.91v1.17Z" transform="translate(0)"/><path d="M216.42,320.1c-2.89-.28-6.92,0-7-4s4-3.77,7-4.09a9.36,9.36,0,0,1,3.16.25c2.38.59,5.89.76,5.44,3.9-.21,1.49-3.63,2.62-5.7,3.7C218.55,320.28,217.47,320,216.42,320.1Zm4.38-3.23,0-1.42h-8.09v1.42Z" transform="translate(0)"/><path d="M339,303.84c4,.33,7.62-.15,8.63,4,.56,2.29-3.38,4.39-7.93,4.16a16.51,16.51,0,0,1-5.77-1.27,3,3,0,0,1,.1-5.74A23.18,23.18,0,0,1,339,303.84Zm5.2,4.79V307.3h-8.62v1.33Z" transform="translate(0)"/><path d="M298.22,284.94c-5.86,0-9.5-1.87-8.84-4.23,1.1-3.9,4.65-3.78,7.83-3.8a9.19,9.19,0,0,1,4.26.7,22.26,22.26,0,0,1,3.92,3.33,22.4,22.4,0,0,1-3.94,3.39A8.22,8.22,0,0,1,298.22,284.94Zm2.15-2.67.27-1.95h-7.55l-.06,1.53Z" transform="translate(0)"/><path d="M373.05,320.56a21.84,21.84,0,0,1,5.13,1c1.13.5,2.55,2,2.54,3a4,4,0,0,1-2.49,3,40.27,40.27,0,0,1-10.11.22c-1.21-.15-3.17-2.28-3.05-3.28.16-1.26,2-2.59,3.35-3.31C369.64,320.59,371.27,320.77,373.05,320.56Zm-4.73,3.4,0,1.41h8.76V324Z" transform="translate(0)"/><path d="M263.24,268.8c3.06.3,6.76,0,7.94,4,.55,1.84-4.13,4.07-8.18,4.08s-8.75-2.27-8.13-4.08C256.17,269,259.7,269,263.24,268.8ZM258.87,272l.07,1.35h8l0-1.35Z" transform="translate(0)"/><path d="M244.8,253c-2.57-.35-6.38.13-7.58-4-.62-2.13,3.42-4.2,8.05-4.08,3.17.09,6.75.07,7.82,3.95C253.68,251.08,249.85,253,244.8,253Zm4.65-3.31c0-.44,0-.87,0-1.3h-8.05c0,.43,0,.86,0,1.3Z" transform="translate(0)"/><path d="M180,407.25a35.75,35.75,0,0,1-5.42-1.54c-1-.46-2.37-1.78-2.33-2.65a3.69,3.69,0,0,1,2.39-2.65,42.85,42.85,0,0,1,10-.72c1.23.09,3.41,2.29,3.24,3.14-.29,1.44-1.94,2.83-3.34,3.72C183.55,407.19,182,407,180,407.25Zm-3.41-4.89,0,1.46h8.14v-1.46Z" transform="translate(0)"/><path d="M238.27,376.73c-4.37,0-8.27-1.92-8.22-4.07s4.36-4.06,8.38-4c4.35.06,7.67,1.91,7.63,4.24S243.13,376.72,238.27,376.73Zm4-3.26V372h-8.08v1.43Z" transform="translate(0)"/><path d="M165.51,369.18a67.53,67.53,0,0,1-6.81-2.09c-2.09-.88-2.28-2.39-.57-4,2.74-2.63,10-3.24,13.16-1.08,2.3,1.56,2.42,4.06,0,5.43C169.59,368.34,167.55,368.59,165.51,369.18Zm4-3.5c-3.58-3.07-5.32-3-8.51,0Z" transform="translate(0)"/><path d="M70.71,124.56c2.14-1,3.58-1.18,4.3-2,1-1.12,2.11-2.84,1.91-4.09-.76-4.74,1.63-8.59,6.42-9.1a18.35,18.35,0,0,1,5.91.37c4.47,1,7.83,0,10-4.25a15.9,15.9,0,0,1,2.36-2.6c-.69,5.93-5.78,9.91-10.52,9.1a40.07,40.07,0,0,0-6.66-1c-4.2,0-6.27,2.57-5.74,6.67C79.36,122.64,77.44,124.6,70.71,124.56Z" transform="translate(0)"/><path d="M86,304.46c.27,4.57-3.68,8.92-7.71,9.12a24.85,24.85,0,0,1-6.27-.8c-6-1.27-9.3,1.62-8.52,7.56.53,4.1-.86,5.4-7.19,6.25.64-.7.92-1.31,1.34-1.42,3.65-.94,4.64-3,3.93-6.79-.87-4.63,3.66-8.29,8.82-7.66,1.44.18,2.85.66,4.28,1,3.79.79,6.82-.12,8.72-3.78A28.6,28.6,0,0,1,86,304.46Z" transform="translate(0)"/><path d="M138.39,60.18c-1,6.42-4.95,9.12-10.78,8.28a28,28,0,0,0-8.14-.39c-3.52.56-4.94,2.84-4.11,6.7,1,4.7-1.77,7.13-7.55,6.45a13,13,0,0,1,2.63-1.41c2.73-.59,3.64-2.09,3.25-4.88-.87-6.22,3.12-10,9.51-9.19,1.17.15,2.32.53,3.49.78C131.55,67.56,132.94,66.84,138.39,60.18Z" transform="translate(0)"/><path d="M143,295.39c-.89,5.24-5.83,9.06-10.59,8.23-1.7-.29-3.35-.86-5.05-1-5.39-.58-7.88,2-7.2,7.4.56,4.36-1.53,6.34-7.18,6.29.85-.68,1.3-1.31,1.89-1.49,3.07-.91,4-2.58,3.38-5.92-.89-4.46,2.59-7.86,7.56-8.08a4.16,4.16,0,0,1,1.58,0c6.4,2.53,11.27.95,14.52-5.24C142,295.39,142.63,295.45,143,295.39Z" transform="translate(0)"/><path d="M71.21,212.67c-.93,5.89-4.84,8.86-10.48,8.4-2.24-.19-4.46-.77-6.69-.75-4.67,0-6.43,2.17-5.95,6.79.54,5.23-1.68,7.29-7.65,6.48a11.8,11.8,0,0,1,2.38-1.12c3.28-.62,4.2-2.34,3.61-5.69-.87-4.89,1.85-7.89,6.75-8.2a17.32,17.32,0,0,1,2.39,0C64.87,219.22,64.87,219.22,71.21,212.67Z" transform="translate(0)"/></g></g></svg>